<svg width="20" height="20" viewBox="0 0 20 20" fill="none" xmlns="http://www.w3.org/2000/svg">
<rect width="20" height="20" fill="white"/>
<path fill-rule="evenodd" clip-rule="evenodd" d="M18.64 10.2046C18.64 9.56637 18.5827 8.95274 18.4764 8.36365H10V11.845H14.8436C14.635 12.97 14.0009 13.9232 13.0477 14.5614V16.8196H15.9564C17.6582 15.2527 18.64 12.9455 18.64 10.2046V10.2046Z" fill="#4285F4"/>
<path fill-rule="evenodd" clip-rule="evenodd" d="M9.99976 19C12.4298 19 14.467 18.1941 15.9561 16.8195L13.0475 14.5613C12.2416 15.1013 11.2107 15.4204 9.99976 15.4204C7.65567 15.4204 5.67158 13.8372 4.96385 11.71H1.95703V14.0418C3.43794 16.9831 6.48158 19 9.99976 19V19Z" fill="#34A853"/>
<path fill-rule="evenodd" clip-rule="evenodd" d="M4.96409 11.7099C4.78409 11.1699 4.68182 10.5931 4.68182 9.99995C4.68182 9.40677 4.78409 8.82995 4.96409 8.28995V5.95813H1.95727C1.34773 7.17313 1 8.54768 1 9.99995C1 11.4522 1.34773 12.8268 1.95727 14.0418L4.96409 11.7099V11.7099Z" fill="#FBBC05"/>
<path fill-rule="evenodd" clip-rule="evenodd" d="M9.99976 4.57955C11.3211 4.57955 12.5075 5.03364 13.4402 5.92545L16.0216 3.34409C14.4629 1.89182 12.4257 1 9.99976 1C6.48158 1 3.43794 3.01682 1.95703 5.95818L4.96385 8.29C5.67158 6.16273 7.65567 4.57955 9.99976 4.57955V4.57955Z" fill="#EA4335"/>
</svg>
